<svg xmlns="http://www.w3.org/2000/svg" xmlns:xlink="http://www.w3.org/1999/xlink" width="6912" zoomAndPan="magnify" viewBox="0 0 5184 2592.000001" height="3456" preserveAspectRatio="xMidYMid meet" version="1.0"><defs><linearGradient x1="0" gradientTransform="matrix(0.749711, 0, 0, 0.749711, 0.999613, 0.0000999614)" y1="0" x2="6911.999712" gradientUnits="userSpaceOnUse" y2="0" id="ed25ded0a5"><stop stop-opacity="1" stop-color="rgb(0%, 0%, 0%)" offset="0"/><stop stop-opacity="1" stop-color="rgb(0.0808716%, 0.0778198%, 0.312805%)" offset="0.00390625"/><stop stop-opacity="1" stop-color="rgb(0.161743%, 0.15564%, 0.627136%)" offset="0.0078125"/><stop stop-opacity="1" stop-color="rgb(0.242615%, 0.233459%, 0.941467%)" offset="0.0117188"/><stop stop-opacity="1" stop-color="rgb(0.323486%, 0.311279%, 1.255798%)" offset="0.015625"/><stop stop-opacity="1" stop-color="rgb(0.404358%, 0.389099%, 1.568604%)" offset="0.0195312"/><stop stop-opacity="1" stop-color="rgb(0.486755%, 0.468445%, 1.882935%)" offset="0.0234375"/><stop stop-opacity="1" stop-color="rgb(0.567627%, 0.546265%, 2.197266%)" offset="0.0273438"/><stop stop-opacity="1" stop-color="rgb(0.648499%, 0.624084%, 2.511597%)" offset="0.03125"/><stop stop-opacity="1" stop-color="rgb(0.72937%, 0.701904%, 2.825928%)" offset="0.0351562"/><stop stop-opacity="1" stop-color="rgb(0.811768%, 0.779724%, 3.140259%)" offset="0.0390625"/><stop stop-opacity="1" stop-color="rgb(0.892639%, 0.857544%, 3.453064%)" offset="0.0429688"/><stop stop-opacity="1" stop-color="rgb(0.973511%, 0.93689%, 3.767395%)" offset="0.046875"/><stop stop-opacity="1" stop-color="rgb(1.054382%, 1.014709%, 4.081726%)" offset="0.0507812"/><stop stop-opacity="1" stop-color="rgb(1.13678%, 1.092529%, 4.396057%)" offset="0.0546875"/><stop stop-opacity="1" stop-color="rgb(1.217651%, 1.170349%, 4.710388%)" offset="0.0585938"/><stop stop-opacity="1" stop-color="rgb(1.298523%, 1.249695%, 5.024719%)" offset="0.0625"/><stop stop-opacity="1" stop-color="rgb(1.379395%, 1.327515%, 5.337524%)" offset="0.0664062"/><stop stop-opacity="1" stop-color="rgb(1.461792%, 1.405334%, 5.651855%)" offset="0.0703125"/><stop stop-opacity="1" stop-color="rgb(1.542664%, 1.483154%, 5.966187%)" offset="0.0742188"/><stop stop-opacity="1" stop-color="rgb(1.623535%, 1.560974%, 6.280518%)" offset="0.078125"/><stop stop-opacity="1" stop-color="rgb(1.704407%, 1.638794%, 6.594849%)" offset="0.0820312"/><stop stop-opacity="1" stop-color="rgb(1.786804%, 1.71814%, 6.90918%)" offset="0.0859375"/><stop stop-opacity="1" stop-color="rgb(1.867676%, 1.795959%, 7.221985%)" offset="0.0898438"/><stop stop-opacity="1" stop-color="rgb(1.948547%, 1.873779%, 7.536316%)" offset="0.09375"/><stop stop-opacity="1" stop-color="rgb(2.029419%, 1.951599%, 7.850647%)" offset="0.0976562"/><stop stop-opacity="1" stop-color="rgb(2.111816%, 2.030945%, 8.164978%)" offset="0.101562"/><stop stop-opacity="1" stop-color="rgb(2.192688%, 2.108765%, 8.479309%)" offset="0.105469"/><stop stop-opacity="1" stop-color="rgb(2.27356%, 2.186584%, 8.79364%)" offset="0.109375"/><stop stop-opacity="1" stop-color="rgb(2.354431%, 2.264404%, 9.106445%)" offset="0.113281"/><stop stop-opacity="1" stop-color="rgb(2.436829%, 2.342224%, 9.420776%)" offset="0.117188"/><stop stop-opacity="1" stop-color="rgb(2.5177%, 2.420044%, 9.735107%)" offset="0.121094"/><stop stop-opacity="1" stop-color="rgb(2.598572%, 2.49939%, 10.049438%)" offset="0.125"/><stop stop-opacity="1" stop-color="rgb(2.679443%, 2.577209%, 10.36377%)" offset="0.128906"/><stop stop-opacity="1" stop-color="rgb(2.761841%, 2.655029%, 10.678101%)" offset="0.132812"/><stop stop-opacity="1" stop-color="rgb(2.842712%, 2.732849%, 10.990906%)" offset="0.136719"/><stop stop-opacity="1" stop-color="rgb(2.923584%, 2.812195%, 11.305237%)" offset="0.140625"/><stop stop-opacity="1" stop-color="rgb(3.004456%, 2.890015%, 11.619568%)" offset="0.144531"/><stop stop-opacity="1" stop-color="rgb(3.086853%, 2.967834%, 11.933899%)" offset="0.148438"/><stop stop-opacity="1" stop-color="rgb(3.167725%, 3.045654%, 12.246704%)" offset="0.152344"/><stop stop-opacity="1" stop-color="rgb(3.248596%, 3.123474%, 12.561035%)" offset="0.15625"/><stop stop-opacity="1" stop-color="rgb(3.329468%, 3.201294%, 12.875366%)" offset="0.160156"/><stop stop-opacity="1" stop-color="rgb(3.411865%, 3.28064%, 13.189697%)" offset="0.164062"/><stop stop-opacity="1" stop-color="rgb(3.492737%, 3.358459%, 13.504028%)" offset="0.167969"/><stop stop-opacity="1" stop-color="rgb(3.573608%, 3.436279%, 13.818359%)" offset="0.171875"/><stop stop-opacity="1" stop-color="rgb(3.65448%, 3.514099%, 14.131165%)" offset="0.175781"/><stop stop-opacity="1" stop-color="rgb(3.736877%, 3.593445%, 14.445496%)" offset="0.179688"/><stop stop-opacity="1" stop-color="rgb(3.817749%, 3.671265%, 14.759827%)" offset="0.183594"/><stop stop-opacity="1" stop-color="rgb(3.898621%, 3.749084%, 15.074158%)" offset="0.1875"/><stop stop-opacity="1" stop-color="rgb(3.979492%, 3.826904%, 15.388489%)" offset="0.191406"/><stop stop-opacity="1" stop-color="rgb(4.06189%, 3.904724%, 15.70282%)" offset="0.195312"/><stop stop-opacity="1" stop-color="rgb(4.142761%, 3.982544%, 16.015625%)" offset="0.199219"/><stop stop-opacity="1" stop-color="rgb(4.223633%, 4.06189%, 16.329956%)" offset="0.203125"/><stop stop-opacity="1" stop-color="rgb(4.304504%, 4.139709%, 16.644287%)" offset="0.207031"/><stop stop-opacity="1" stop-color="rgb(4.386902%, 4.217529%, 16.958618%)" offset="0.210938"/><stop stop-opacity="1" stop-color="rgb(4.467773%, 4.295349%, 17.272949%)" offset="0.214844"/><stop stop-opacity="1" stop-color="rgb(4.548645%, 4.374695%, 17.58728%)" offset="0.21875"/><stop stop-opacity="1" stop-color="rgb(4.629517%, 4.452515%, 17.900085%)" offset="0.222656"/><stop stop-opacity="1" stop-color="rgb(4.711914%, 4.530334%, 18.214417%)" offset="0.226562"/><stop stop-opacity="1" stop-color="rgb(4.792786%, 4.608154%, 18.528748%)" offset="0.230469"/><stop stop-opacity="1" stop-color="rgb(4.873657%, 4.685974%, 18.843079%)" offset="0.234375"/><stop stop-opacity="1" stop-color="rgb(4.954529%, 4.763794%, 19.15741%)" offset="0.238281"/><stop stop-opacity="1" stop-color="rgb(5.036926%, 4.84314%, 19.471741%)" offset="0.242188"/><stop stop-opacity="1" stop-color="rgb(5.117798%, 4.920959%, 19.784546%)" offset="0.246094"/><stop stop-opacity="1" stop-color="rgb(5.198669%, 4.998779%, 20.098877%)" offset="0.25"/><stop stop-opacity="1" stop-color="rgb(5.279541%, 5.076599%, 20.413208%)" offset="0.253906"/><stop stop-opacity="1" stop-color="rgb(5.361938%, 5.155945%, 20.727539%)" offset="0.257812"/><stop stop-opacity="1" stop-color="rgb(5.44281%, 5.233765%, 21.04187%)" offset="0.261719"/><stop stop-opacity="1" stop-color="rgb(5.523682%, 5.311584%, 21.356201%)" offset="0.265625"/><stop stop-opacity="1" stop-color="rgb(5.604553%, 5.389404%, 21.669006%)" offset="0.269531"/><stop stop-opacity="1" stop-color="rgb(5.686951%, 5.467224%, 21.983337%)" offset="0.273438"/><stop stop-opacity="1" stop-color="rgb(5.767822%, 5.545044%, 22.297668%)" offset="0.277344"/><stop stop-opacity="1" stop-color="rgb(5.848694%, 5.62439%, 22.612%)" offset="0.28125"/><stop stop-opacity="1" stop-color="rgb(5.929565%, 5.702209%, 22.924805%)" offset="0.285156"/><stop stop-opacity="1" stop-color="rgb(6.011963%, 5.780029%, 23.239136%)" offset="0.289062"/><stop stop-opacity="1" stop-color="rgb(6.092834%, 5.857849%, 23.553467%)" offset="0.292969"/><stop stop-opacity="1" stop-color="rgb(6.173706%, 5.937195%, 23.867798%)" offset="0.296875"/><stop stop-opacity="1" stop-color="rgb(6.254578%, 6.015015%, 24.182129%)" offset="0.300781"/><stop stop-opacity="1" stop-color="rgb(6.336975%, 6.092834%, 24.49646%)" offset="0.304688"/><stop stop-opacity="1" stop-color="rgb(6.417847%, 6.170654%, 24.809265%)" offset="0.308594"/><stop stop-opacity="1" stop-color="rgb(6.498718%, 6.248474%, 25.123596%)" offset="0.3125"/><stop stop-opacity="1" stop-color="rgb(6.57959%, 6.326294%, 25.437927%)" offset="0.316406"/><stop stop-opacity="1" stop-color="rgb(6.661987%, 6.40564%, 25.752258%)" offset="0.320312"/><stop stop-opacity="1" stop-color="rgb(6.742859%, 6.483459%, 26.066589%)" offset="0.324219"/><stop stop-opacity="1" stop-color="rgb(6.82373%, 6.561279%, 26.38092%)" offset="0.328125"/><stop stop-opacity="1" stop-color="rgb(6.904602%, 6.639099%, 26.693726%)" offset="0.332031"/><stop stop-opacity="1" stop-color="rgb(6.987%, 6.718445%, 27.008057%)" offset="0.335938"/><stop stop-opacity="1" stop-color="rgb(7.067871%, 6.796265%, 27.322388%)" offset="0.339844"/><stop stop-opacity="1" stop-color="rgb(7.148743%, 6.874084%, 27.636719%)" offset="0.34375"/><stop stop-opacity="1" stop-color="rgb(7.229614%, 6.951904%, 27.95105%)" offset="0.347656"/><stop stop-opacity="1" stop-color="rgb(7.312012%, 7.029724%, 28.265381%)" offset="0.351562"/><stop stop-opacity="1" stop-color="rgb(7.392883%, 7.107544%, 28.578186%)" offset="0.355469"/><stop stop-opacity="1" stop-color="rgb(7.473755%, 7.18689%, 28.892517%)" offset="0.359375"/><stop stop-opacity="1" stop-color="rgb(7.554626%, 7.264709%, 29.206848%)" offset="0.363281"/><stop stop-opacity="1" stop-color="rgb(7.637024%, 7.342529%, 29.521179%)" offset="0.367188"/><stop stop-opacity="1" stop-color="rgb(7.717896%, 7.420349%, 29.83551%)" offset="0.371094"/><stop stop-opacity="1" stop-color="rgb(7.798767%, 7.499695%, 30.149841%)" offset="0.375"/><stop stop-opacity="1" stop-color="rgb(7.879639%, 7.577515%, 30.462646%)" offset="0.378906"/><stop stop-opacity="1" stop-color="rgb(7.962036%, 7.655334%, 30.776978%)" offset="0.382812"/><stop stop-opacity="1" stop-color="rgb(8.042908%, 7.733154%, 31.091309%)" offset="0.386719"/><stop stop-opacity="1" stop-color="rgb(8.123779%, 7.810974%, 31.40564%)" offset="0.390625"/><stop stop-opacity="1" stop-color="rgb(8.204651%, 7.888794%, 31.719971%)" offset="0.394531"/><stop stop-opacity="1" stop-color="rgb(8.287048%, 7.96814%, 32.034302%)" offset="0.398438"/><stop stop-opacity="1" stop-color="rgb(8.36792%, 8.045959%, 32.347107%)" offset="0.402344"/><stop stop-opacity="1" stop-color="rgb(8.448792%, 8.123779%, 32.661438%)" offset="0.40625"/><stop stop-opacity="1" stop-color="rgb(8.529663%, 8.201599%, 32.975769%)" offset="0.410156"/><stop stop-opacity="1" stop-color="rgb(8.612061%, 8.280945%, 33.2901%)" offset="0.414062"/><stop stop-opacity="1" stop-color="rgb(8.692932%, 8.358765%, 33.602905%)" offset="0.417969"/><stop stop-opacity="1" stop-color="rgb(8.773804%, 8.436584%, 33.917236%)" offset="0.421875"/><stop stop-opacity="1" stop-color="rgb(8.854675%, 8.514404%, 34.231567%)" offset="0.425781"/><stop stop-opacity="1" stop-color="rgb(8.937073%, 8.592224%, 34.545898%)" offset="0.429688"/><stop stop-opacity="1" stop-color="rgb(9.017944%, 8.670044%, 34.860229%)" offset="0.433594"/><stop stop-opacity="1" stop-color="rgb(9.098816%, 8.74939%, 35.174561%)" offset="0.4375"/><stop stop-opacity="1" stop-color="rgb(9.179688%, 8.827209%, 35.487366%)" offset="0.441406"/><stop stop-opacity="1" stop-color="rgb(9.262085%, 8.905029%, 35.801697%)" offset="0.445312"/><stop stop-opacity="1" stop-color="rgb(9.342957%, 8.982849%, 36.116028%)" offset="0.449219"/><stop stop-opacity="1" stop-color="rgb(9.423828%, 9.062195%, 36.430359%)" offset="0.453125"/><stop stop-opacity="1" stop-color="rgb(9.5047%, 9.140015%, 36.74469%)" offset="0.457031"/><stop stop-opacity="1" stop-color="rgb(9.587097%, 9.217834%, 37.059021%)" offset="0.460938"/><stop stop-opacity="1" stop-color="rgb(9.667969%, 9.295654%, 37.371826%)" offset="0.464844"/><stop stop-opacity="1" stop-color="rgb(9.74884%, 9.373474%, 37.686157%)" offset="0.46875"/><stop stop-opacity="1" stop-color="rgb(9.829712%, 9.451294%, 38.000488%)" offset="0.472656"/><stop stop-opacity="1" stop-color="rgb(9.912109%, 9.53064%, 38.314819%)" offset="0.476562"/><stop stop-opacity="1" stop-color="rgb(9.992981%, 9.608459%, 38.62915%)" offset="0.480469"/><stop stop-opacity="1" stop-color="rgb(10.073853%, 9.686279%, 38.943481%)" offset="0.484375"/><stop stop-opacity="1" stop-color="rgb(10.154724%, 9.764099%, 39.256287%)" offset="0.488281"/><stop stop-opacity="1" stop-color="rgb(10.237122%, 9.843445%, 39.570618%)" offset="0.492188"/><stop stop-opacity="1" stop-color="rgb(10.317993%, 9.921265%, 39.884949%)" offset="0.496094"/><stop stop-opacity="1" stop-color="rgb(10.398865%, 9.999084%, 40.19928%)" offset="0.5"/><stop stop-opacity="1" stop-color="rgb(10.479736%, 10.076904%, 40.513611%)" offset="0.503906"/><stop stop-opacity="1" stop-color="rgb(10.562134%, 10.154724%, 40.827942%)" offset="0.507812"/><stop stop-opacity="1" stop-color="rgb(10.643005%, 10.232544%, 41.140747%)" offset="0.511719"/><stop stop-opacity="1" stop-color="rgb(10.723877%, 10.31189%, 41.455078%)" offset="0.515625"/><stop stop-opacity="1" stop-color="rgb(10.804749%, 10.389709%, 41.769409%)" offset="0.519531"/><stop stop-opacity="1" stop-color="rgb(10.887146%, 10.467529%, 42.08374%)" offset="0.523438"/><stop stop-opacity="1" stop-color="rgb(10.968018%, 10.545349%, 42.398071%)" offset="0.527344"/><stop stop-opacity="1" stop-color="rgb(11.048889%, 10.624695%, 42.712402%)" offset="0.53125"/><stop stop-opacity="1" stop-color="rgb(11.129761%, 10.702515%, 43.025208%)" offset="0.535156"/><stop stop-opacity="1" stop-color="rgb(11.212158%, 10.780334%, 43.339539%)" offset="0.539062"/><stop stop-opacity="1" stop-color="rgb(11.29303%, 10.858154%, 43.65387%)" offset="0.542969"/><stop stop-opacity="1" stop-color="rgb(11.373901%, 10.935974%, 43.968201%)" offset="0.546875"/><stop stop-opacity="1" stop-color="rgb(11.454773%, 11.013794%, 44.282532%)" offset="0.550781"/><stop stop-opacity="1" stop-color="rgb(11.53717%, 11.09314%, 44.596863%)" offset="0.554688"/><stop stop-opacity="1" stop-color="rgb(11.618042%, 11.170959%, 44.909668%)" offset="0.558594"/><stop stop-opacity="1" stop-color="rgb(11.698914%, 11.248779%, 45.223999%)" offset="0.5625"/><stop stop-opacity="1" stop-color="rgb(11.779785%, 11.326599%, 45.53833%)" offset="0.566406"/><stop stop-opacity="1" stop-color="rgb(11.862183%, 11.405945%, 45.852661%)" offset="0.570312"/><stop stop-opacity="1" stop-color="rgb(11.943054%, 11.483765%, 46.165466%)" offset="0.574219"/><stop stop-opacity="1" stop-color="rgb(12.023926%, 11.561584%, 46.479797%)" offset="0.578125"/><stop stop-opacity="1" stop-color="rgb(12.104797%, 11.639404%, 46.794128%)" offset="0.582031"/><stop stop-opacity="1" stop-color="rgb(12.187195%, 11.717224%, 47.108459%)" offset="0.585938"/><stop stop-opacity="1" stop-color="rgb(12.268066%, 11.795044%, 47.422791%)" offset="0.589844"/><stop stop-opacity="1" stop-color="rgb(12.348938%, 11.87439%, 47.737122%)" offset="0.59375"/><stop stop-opacity="1" stop-color="rgb(12.42981%, 11.952209%, 48.049927%)" offset="0.597656"/><stop stop-opacity="1" stop-color="rgb(12.512207%, 12.030029%, 48.364258%)" offset="0.601562"/><stop stop-opacity="1" stop-color="rgb(12.593079%, 12.107849%, 48.678589%)" offset="0.605469"/><stop stop-opacity="1" stop-color="rgb(12.67395%, 12.187195%, 48.99292%)" offset="0.609375"/><stop stop-opacity="1" stop-color="rgb(12.754822%, 12.265015%, 49.307251%)" offset="0.613281"/><stop stop-opacity="1" stop-color="rgb(12.837219%, 12.342834%, 49.621582%)" offset="0.617188"/><stop stop-opacity="1" stop-color="rgb(12.918091%, 12.420654%, 49.934387%)" offset="0.621094"/><stop stop-opacity="1" stop-color="rgb(12.998962%, 12.498474%, 50.248718%)" offset="0.625"/><stop stop-opacity="1" stop-color="rgb(13.079834%, 12.576294%, 50.563049%)" offset="0.628906"/><stop stop-opacity="1" stop-color="rgb(13.162231%, 12.65564%, 50.87738%)" offset="0.632812"/><stop stop-opacity="1" stop-color="rgb(13.243103%, 12.733459%, 51.191711%)" offset="0.636719"/><stop stop-opacity="1" stop-color="rgb(13.323975%, 12.811279%, 51.506042%)" offset="0.640625"/><stop stop-opacity="1" stop-color="rgb(13.404846%, 12.889099%, 51.818848%)" offset="0.644531"/><stop stop-opacity="1" stop-color="rgb(13.487244%, 12.968445%, 52.133179%)" offset="0.648438"/><stop stop-opacity="1" stop-color="rgb(13.568115%, 13.046265%, 52.44751%)" offset="0.652344"/><stop stop-opacity="1" stop-color="rgb(13.648987%, 13.124084%, 52.761841%)" offset="0.65625"/><stop stop-opacity="1" stop-color="rgb(13.729858%, 13.201904%, 53.076172%)" offset="0.660156"/><stop stop-opacity="1" stop-color="rgb(13.812256%, 13.279724%, 53.390503%)" offset="0.664062"/><stop stop-opacity="1" stop-color="rgb(13.893127%, 13.357544%, 53.703308%)" offset="0.667969"/><stop stop-opacity="1" stop-color="rgb(13.973999%, 13.43689%, 54.017639%)" offset="0.671875"/><stop stop-opacity="1" stop-color="rgb(14.054871%, 13.514709%, 54.33197%)" offset="0.675781"/><stop stop-opacity="1" stop-color="rgb(14.137268%, 13.592529%, 54.646301%)" offset="0.679688"/><stop stop-opacity="1" stop-color="rgb(14.21814%, 13.670349%, 54.960632%)" offset="0.683594"/><stop stop-opacity="1" stop-color="rgb(14.299011%, 13.749695%, 55.274963%)" offset="0.6875"/><stop stop-opacity="1" stop-color="rgb(14.379883%, 13.827515%, 55.587769%)" offset="0.691406"/><stop stop-opacity="1" stop-color="rgb(14.46228%, 13.905334%, 55.9021%)" offset="0.695312"/><stop stop-opacity="1" stop-color="rgb(14.543152%, 13.983154%, 56.216431%)" offset="0.699219"/><stop stop-opacity="1" stop-color="rgb(14.624023%, 14.060974%, 56.530762%)" offset="0.703125"/><stop stop-opacity="1" stop-color="rgb(14.704895%, 14.138794%, 56.843567%)" offset="0.707031"/><stop stop-opacity="1" stop-color="rgb(14.787292%, 14.21814%, 57.157898%)" offset="0.710938"/><stop stop-opacity="1" stop-color="rgb(14.868164%, 14.295959%, 57.472229%)" offset="0.714844"/><stop stop-opacity="1" stop-color="rgb(14.949036%, 14.373779%, 57.78656%)" offset="0.71875"/><stop stop-opacity="1" stop-color="rgb(15.029907%, 14.451599%, 58.100891%)" offset="0.722656"/><stop stop-opacity="1" stop-color="rgb(15.112305%, 14.530945%, 58.415222%)" offset="0.726562"/><stop stop-opacity="1" stop-color="rgb(15.193176%, 14.608765%, 58.728027%)" offset="0.730469"/><stop stop-opacity="1" stop-color="rgb(15.274048%, 14.686584%, 59.042358%)" offset="0.734375"/><stop stop-opacity="1" stop-color="rgb(15.354919%, 14.764404%, 59.356689%)" offset="0.738281"/><stop stop-opacity="1" stop-color="rgb(15.437317%, 14.842224%, 59.671021%)" offset="0.742188"/><stop stop-opacity="1" stop-color="rgb(15.518188%, 14.920044%, 59.985352%)" offset="0.746094"/><stop stop-opacity="1" stop-color="rgb(15.59906%, 14.99939%, 60.299683%)" offset="0.75"/><stop stop-opacity="1" stop-color="rgb(15.679932%, 15.077209%, 60.612488%)" offset="0.753906"/><stop stop-opacity="1" stop-color="rgb(15.762329%, 15.155029%, 60.926819%)" offset="0.757812"/><stop stop-opacity="1" stop-color="rgb(15.843201%, 15.232849%, 61.24115%)" offset="0.761719"/><stop stop-opacity="1" stop-color="rgb(15.924072%, 15.312195%, 61.555481%)" offset="0.765625"/><stop stop-opacity="1" stop-color="rgb(16.004944%, 15.390015%, 61.869812%)" offset="0.769531"/><stop stop-opacity="1" stop-color="rgb(16.087341%, 15.467834%, 62.184143%)" offset="0.773438"/><stop stop-opacity="1" stop-color="rgb(16.168213%, 15.545654%, 62.496948%)" offset="0.777344"/><stop stop-opacity="1" stop-color="rgb(16.249084%, 15.623474%, 62.811279%)" offset="0.78125"/><stop stop-opacity="1" stop-color="rgb(16.329956%, 15.701294%, 63.12561%)" offset="0.785156"/><stop stop-opacity="1" stop-color="rgb(16.412354%, 15.78064%, 63.439941%)" offset="0.789062"/><stop stop-opacity="1" stop-color="rgb(16.493225%, 15.858459%, 63.754272%)" offset="0.792969"/><stop stop-opacity="1" stop-color="rgb(16.574097%, 15.936279%, 64.068604%)" offset="0.796875"/><stop stop-opacity="1" stop-color="rgb(16.654968%, 16.014099%, 64.381409%)" offset="0.800781"/><stop stop-opacity="1" stop-color="rgb(16.737366%, 16.093445%, 64.69574%)" offset="0.804688"/><stop stop-opacity="1" stop-color="rgb(16.818237%, 16.171265%, 65.010071%)" offset="0.808594"/><stop stop-opacity="1" stop-color="rgb(16.899109%, 16.249084%, 65.324402%)" offset="0.8125"/><stop stop-opacity="1" stop-color="rgb(16.97998%, 16.326904%, 65.638733%)" offset="0.816406"/><stop stop-opacity="1" stop-color="rgb(17.062378%, 16.404724%, 65.953064%)" offset="0.820312"/><stop stop-opacity="1" stop-color="rgb(17.14325%, 16.482544%, 66.265869%)" offset="0.824219"/><stop stop-opacity="1" stop-color="rgb(17.224121%, 16.56189%, 66.5802%)" offset="0.828125"/><stop stop-opacity="1" stop-color="rgb(17.304993%, 16.639709%, 66.894531%)" offset="0.832031"/><stop stop-opacity="1" stop-color="rgb(17.38739%, 16.717529%, 67.208862%)" offset="0.835938"/><stop stop-opacity="1" stop-color="rgb(17.468262%, 16.795349%, 67.521667%)" offset="0.839844"/><stop stop-opacity="1" stop-color="rgb(17.549133%, 16.874695%, 67.835999%)" offset="0.84375"/><stop stop-opacity="1" stop-color="rgb(17.630005%, 16.952515%, 68.15033%)" offset="0.847656"/><stop stop-opacity="1" stop-color="rgb(17.712402%, 17.030334%, 68.464661%)" offset="0.851562"/><stop stop-opacity="1" stop-color="rgb(17.793274%, 17.108154%, 68.778992%)" offset="0.855469"/><stop stop-opacity="1" stop-color="rgb(17.874146%, 17.185974%, 69.093323%)" offset="0.859375"/><stop stop-opacity="1" stop-color="rgb(17.955017%, 17.263794%, 69.406128%)" offset="0.863281"/><stop stop-opacity="1" stop-color="rgb(18.037415%, 17.34314%, 69.720459%)" offset="0.867188"/><stop stop-opacity="1" stop-color="rgb(18.118286%, 17.420959%, 70.03479%)" offset="0.871094"/><stop stop-opacity="1" stop-color="rgb(18.199158%, 17.498779%, 70.349121%)" offset="0.875"/><stop stop-opacity="1" stop-color="rgb(18.280029%, 17.576599%, 70.663452%)" offset="0.878906"/><stop stop-opacity="1" stop-color="rgb(18.362427%, 17.655945%, 70.977783%)" offset="0.882812"/><stop stop-opacity="1" stop-color="rgb(18.443298%, 17.733765%, 71.290588%)" offset="0.886719"/><stop stop-opacity="1" stop-color="rgb(18.52417%, 17.811584%, 71.604919%)" offset="0.890625"/><stop stop-opacity="1" stop-color="rgb(18.605042%, 17.889404%, 71.91925%)" offset="0.894531"/><stop stop-opacity="1" stop-color="rgb(18.687439%, 17.967224%, 72.233582%)" offset="0.898438"/><stop stop-opacity="1" stop-color="rgb(18.768311%, 18.045044%, 72.547913%)" offset="0.902344"/><stop stop-opacity="1" stop-color="rgb(18.849182%, 18.12439%, 72.862244%)" offset="0.90625"/><stop stop-opacity="1" stop-color="rgb(18.930054%, 18.202209%, 73.175049%)" offset="0.910156"/><stop stop-opacity="1" stop-color="rgb(19.012451%, 18.280029%, 73.48938%)" offset="0.914062"/><stop stop-opacity="1" stop-color="rgb(19.093323%, 18.357849%, 73.803711%)" offset="0.917969"/><stop stop-opacity="1" stop-color="rgb(19.174194%, 18.437195%, 74.118042%)" offset="0.921875"/><stop stop-opacity="1" stop-color="rgb(19.255066%, 18.515015%, 74.432373%)" offset="0.925781"/><stop stop-opacity="1" stop-color="rgb(19.337463%, 18.592834%, 74.746704%)" offset="0.929688"/><stop stop-opacity="1" stop-color="rgb(19.418335%, 18.670654%, 75.059509%)" offset="0.933594"/><stop stop-opacity="1" stop-color="rgb(19.499207%, 18.748474%, 75.37384%)" offset="0.9375"/><stop stop-opacity="1" stop-color="rgb(19.580078%, 18.826294%, 75.688171%)" offset="0.941406"/><stop stop-opacity="1" stop-color="rgb(19.662476%, 18.90564%, 76.002502%)" offset="0.945312"/><stop stop-opacity="1" stop-color="rgb(19.743347%, 18.983459%, 76.316833%)" offset="0.949219"/><stop stop-opacity="1" stop-color="rgb(19.824219%, 19.061279%, 76.631165%)" offset="0.953125"/><stop stop-opacity="1" stop-color="rgb(19.90509%, 19.139099%, 76.94397%)" offset="0.957031"/><stop stop-opacity="1" stop-color="rgb(19.987488%, 19.218445%, 77.258301%)" offset="0.960938"/><stop stop-opacity="1" stop-color="rgb(20.068359%, 19.296265%, 77.572632%)" offset="0.964844"/><stop stop-opacity="1" stop-color="rgb(20.149231%, 19.374084%, 77.886963%)" offset="0.96875"/><stop stop-opacity="1" stop-color="rgb(20.230103%, 19.451904%, 78.199768%)" offset="0.972656"/><stop stop-opacity="1" stop-color="rgb(20.310974%, 19.529724%, 78.514099%)" offset="0.976562"/><stop stop-opacity="1" stop-color="rgb(20.391846%, 19.607544%, 78.82843%)" offset="0.980469"/><stop stop-opacity="1" stop-color="rgb(20.474243%, 19.68689%, 79.142761%)" offset="0.984375"/><stop stop-opacity="1" stop-color="rgb(20.555115%, 19.764709%, 79.457092%)" offset="0.988281"/><stop stop-opacity="1" stop-color="rgb(20.635986%, 19.842529%, 79.771423%)" offset="0.992188"/><stop stop-opacity="1" stop-color="rgb(20.716858%, 19.920349%, 80.084229%)" offset="0.996094"/><stop stop-opacity="1" stop-color="rgb(20.799255%, 19.999695%, 80.39856%)" offset="1"/></linearGradient><clipPath id="dcd1023fd5"><path d="M 4841 1973 L 4990 1973 L 4990 2018.957031 L 4841 2018.957031 Z M 4841 1973 " clip-rule="nonzero"/></clipPath><clipPath id="fab3683c0f"><path d="M 4172.078125 760.386719 L 4236 760.386719 L 4236 816 L 4172.078125 816 Z M 4172.078125 760.386719 " clip-rule="nonzero"/></clipPath><clipPath id="1d6087d545"><path d="M 5065 337 L 5182.714844 337 L 5182.714844 439 L 5065 439 Z M 5065 337 " clip-rule="nonzero"/></clipPath><clipPath id="2243624495"><path d="M 5065 2510 L 5182.714844 2510 L 5182.714844 2591 L 5065 2591 Z M 5065 2510 " clip-rule="nonzero"/></clipPath><clipPath id="6a4c8b7c38"><path d="M 4841 2018.957031 L 4990 2018.957031 L 4990 2122 L 4841 2122 Z M 4841 2018.957031 " clip-rule="nonzero"/></clipPath><clipPath id="c53006cf7f"><path d="M 2670 1973 L 2819 1973 L 2819 2018.957031 L 2670 2018.957031 Z M 2670 1973 " clip-rule="nonzero"/></clipPath><clipPath id="ae684a70c8"><path d="M 2000.25 760.386719 L 2064 760.386719 L 2064 816 L 2000.25 816 Z M 2000.25 760.386719 " clip-rule="nonzero"/></clipPath><clipPath id="6322853b9e"><path d="M 4103 227 L 4172.078125 227 L 4172.078125 297 L 4103 297 Z M 4103 227 " clip-rule="nonzero"/></clipPath><clipPath id="2b814e05a6"><path d="M 4103 2401 L 4172.078125 2401 L 4172.078125 2469.890625 L 4103 2469.890625 Z M 4103 2401 " clip-rule="nonzero"/></clipPath><clipPath id="26a3e594e2"><path d="M 2893 2510 L 3011 2510 L 3011 2591 L 2893 2591 Z M 2893 2510 " clip-rule="nonzero"/></clipPath><clipPath id="e491c0071b"><path d="M 2670 2018.957031 L 2819 2018.957031 L 2819 2122 L 2670 2122 Z M 2670 2018.957031 " clip-rule="nonzero"/></clipPath><clipPath id="222ae22f34"><path d="M 498 1973 L 647 1973 L 647 2018.957031 L 498 2018.957031 Z M 498 1973 " clip-rule="nonzero"/></clipPath><clipPath id="6468cc6ec5"><path d="M 1932 227 L 2000.25 227 L 2000.25 297 L 1932 297 Z M 1932 227 " clip-rule="nonzero"/></clipPath><clipPath id="cc25c90d84"><path d="M 1932 2401 L 2000.25 2401 L 2000.25 2469.890625 L 1932 2469.890625 Z M 1932 2401 " clip-rule="nonzero"/></clipPath><clipPath id="e033586c52"><path d="M 721 2510 L 839 2510 L 839 2591 L 721 2591 Z M 721 2510 " clip-rule="nonzero"/></clipPath><clipPath id="83a9974655"><path d="M 498 2018.957031 L 647 2018.957031 L 647 2122 L 498 2122 Z M 498 2018.957031 " clip-rule="nonzero"/></clipPath></defs><path fill="#ffffff" d="M 1 0 L 5183 0 L 5183 2591 L 1 2591 Z M 1 0 " fill-opacity="1" fill-rule="nonzero"/><path fill="url(#ed25ded0a5)" d="M 1 0 L 1 2591 L 5183 2591 L 5183 0 Z M 1 0 " fill-rule="nonzero"/><path fill="#f14b68" d="M 4581.539062 1463.722656 L 4503.867188 1391.945312 L 4575.597656 1314.230469 L 4653.308594 1386.003906 L 4581.539062 1463.722656 " fill-opacity="1" fill-rule="nonzero"/><path fill="#f5b5b8" d="M 4453.722656 1895.808594 L 4506.570312 1850.292969 L 4552.082031 1903.140625 L 4499.234375 1948.65625 L 4453.722656 1895.808594 " fill-opacity="1" fill-rule="nonzero"/><path fill="#ffffff" d="M 4845.238281 1539.714844 L 4858.796875 1522.101562 L 4876.414062 1535.660156 L 4862.851562 1553.234375 L 4845.238281 1539.714844 " fill-opacity="1" fill-rule="nonzero"/><g clip-path="url(#dcd1023fd5)"><path fill="#f7bf49" d="M 4989.808594 2047.101562 C 4989.808594 2087.90625 4956.707031 2121.007812 4915.863281 2121.007812 C 4875.019531 2121.007812 4841.960938 2087.90625 4841.960938 2047.101562 C 4841.960938 2006.257812 4875.019531 1973.15625 4915.863281 1973.15625 C 4956.707031 1973.15625 4989.808594 2006.257812 4989.808594 2047.101562 " fill-opacity="1" fill-rule="nonzero"/></g><path fill="#ffffff" d="M 5022.128906 677.917969 L 4966.007812 626.09375 L 5017.828125 569.925781 L 5073.992188 621.792969 L 5022.128906 677.917969 " fill-opacity="1" fill-rule="nonzero"/><path fill="#f9a70d" d="M 4219.886719 1632.632812 L 4243.894531 1601.375 L 4275.191406 1625.421875 L 4251.144531 1656.679688 L 4219.886719 1632.632812 " fill-opacity="1" fill-rule="nonzero"/><g clip-path="url(#fab3683c0f)"><path fill="#f03e7b" d="M 4203.789062 760.589844 L 4172.078125 815.570312 L 4235.535156 815.570312 Z M 4203.789062 760.589844 " fill-opacity="1" fill-rule="nonzero"/></g><path fill="#f14b68" d="M 5071.78125 988.535156 L 5019.796875 1078.625 L 5123.808594 1078.625 Z M 5071.78125 988.535156 " fill-opacity="1" fill-rule="nonzero"/><path fill="#aae1ca" d="M 4616.480469 742.359375 L 4518.613281 911.925781 L 4714.390625 911.925781 Z M 4616.480469 742.359375 " fill-opacity="1" fill-rule="nonzero"/><path fill="#f5b5b8" d="M 4403.703125 226.042969 L 4387.808594 207.605469 L 4363.882812 212.152344 L 4355.8125 235.097656 L 4371.707031 253.574219 L 4395.632812 249.023438 L 4403.703125 226.042969 " fill-opacity="1" fill-rule="nonzero"/><path fill="#5f6062" d="M 4333.527344 1358.558594 C 4333.527344 1381.867188 4314.230469 1400.792969 4290.347656 1400.792969 C 4266.546875 1400.792969 4247.210938 1381.867188 4247.210938 1358.558594 C 4247.210938 1335.246094 4266.546875 1316.359375 4290.347656 1316.359375 C 4314.230469 1316.359375 4333.527344 1335.246094 4333.527344 1358.558594 " fill-opacity="1" fill-rule="nonzero"/><g clip-path="url(#1d6087d545)"><path fill="#afd6df" d="M 5123.808594 337.1875 L 5065.433594 438.296875 L 5182.1875 438.296875 Z M 5123.808594 337.1875 " fill-opacity="1" fill-rule="nonzero"/></g><path fill="#5c52a6" d="M 4344.34375 468.324219 L 4328.449219 449.890625 L 4304.523438 454.398438 L 4296.492188 477.421875 L 4312.390625 495.855469 L 4336.3125 491.308594 L 4344.34375 468.324219 " fill-opacity="1" fill-rule="nonzero"/><path fill="#f5b5b8" d="M 4403.703125 2399.671875 L 4387.808594 2381.195312 L 4363.882812 2385.742188 L 4355.8125 2408.726562 L 4371.707031 2427.203125 L 4395.632812 2422.65625 L 4403.703125 2399.671875 " fill-opacity="1" fill-rule="nonzero"/><g clip-path="url(#2243624495)"><path fill="#afd6df" d="M 5123.808594 2510.777344 L 5065.433594 2611.886719 L 5182.1875 2611.886719 Z M 5123.808594 2510.777344 " fill-opacity="1" fill-rule="nonzero"/></g><g clip-path="url(#6a4c8b7c38)"><path fill="#f7bf49" d="M 4989.808594 2047.101562 C 4989.808594 2087.90625 4956.707031 2121.007812 4915.863281 2121.007812 C 4875.019531 2121.007812 4841.960938 2087.90625 4841.960938 2047.101562 C 4841.960938 2006.257812 4875.019531 1973.15625 4915.863281 1973.15625 C 4956.707031 1973.15625 4989.808594 2006.257812 4989.808594 2047.101562 " fill-opacity="1" fill-rule="nonzero"/></g><path fill="#ffffff" d="M 3936.234375 1764.710938 L 3880.113281 1712.886719 L 3931.933594 1656.761719 L 3988.097656 1708.585938 L 3936.234375 1764.710938 " fill-opacity="1" fill-rule="nonzero"/><path fill="#f03e7b" d="M 3117.894531 1847.386719 L 3086.144531 1902.363281 L 3149.640625 1902.363281 Z M 3117.894531 1847.386719 " fill-opacity="1" fill-rule="nonzero"/><path fill="#aae1ca" d="M 3530.585938 1829.152344 L 3432.71875 1998.71875 L 3628.496094 1998.71875 Z M 3530.585938 1829.152344 " fill-opacity="1" fill-rule="nonzero"/><path fill="#f5b5b8" d="M 3317.808594 1312.878906 L 3301.871094 1294.402344 L 3277.988281 1298.949219 L 3269.917969 1321.929688 L 3285.8125 1340.367188 L 3309.738281 1335.859375 L 3317.808594 1312.878906 " fill-opacity="1" fill-rule="nonzero"/><path fill="#f14b68" d="M 2409.75 1463.722656 L 2332.035156 1391.945312 L 2403.808594 1314.230469 L 2481.480469 1386.003906 L 2409.75 1463.722656 " fill-opacity="1" fill-rule="nonzero"/><path fill="#f5b5b8" d="M 2281.933594 1895.808594 L 2334.78125 1850.292969 L 2380.292969 1903.140625 L 2327.449219 1948.65625 L 2281.933594 1895.808594 " fill-opacity="1" fill-rule="nonzero"/><path fill="#ffffff" d="M 2673.449219 1539.714844 L 2686.96875 1522.101562 L 2704.585938 1535.660156 L 2691.066406 1553.234375 L 2673.449219 1539.714844 " fill-opacity="1" fill-rule="nonzero"/><path fill="#d3bfe0" d="M 3086.144531 1348.804688 C 3086.144531 1367.652344 3070.90625 1382.933594 3052.058594 1382.933594 C 3033.214844 1382.933594 3017.933594 1367.652344 3017.933594 1348.804688 C 3017.933594 1330.003906 3033.214844 1314.722656 3052.058594 1314.722656 C 3070.90625 1314.722656 3086.144531 1330.003906 3086.144531 1348.804688 " fill-opacity="1" fill-rule="nonzero"/><g clip-path="url(#c53006cf7f)"><path fill="#f7bf49" d="M 2818.019531 2047.101562 C 2818.019531 2087.90625 2784.878906 2121.007812 2744.074219 2121.007812 C 2703.230469 2121.007812 2670.132812 2087.90625 2670.132812 2047.101562 C 2670.132812 2006.257812 2703.230469 1973.15625 2744.074219 1973.15625 C 2784.878906 1973.15625 2818.019531 2006.257812 2818.019531 2047.101562 " fill-opacity="1" fill-rule="nonzero"/></g><path fill="#ffffff" d="M 2850.34375 677.917969 L 2794.21875 626.09375 L 2846.039062 569.925781 L 2902.207031 621.792969 L 2850.34375 677.917969 " fill-opacity="1" fill-rule="nonzero"/><path fill="#f14b68" d="M 3495.644531 376.886719 L 3417.929688 305.152344 L 3489.703125 227.433594 L 3567.417969 299.167969 L 3495.644531 376.886719 " fill-opacity="1" fill-rule="nonzero"/><path fill="#f9a70d" d="M 2048.097656 1632.632812 L 2072.105469 1601.375 L 2103.363281 1625.421875 L 2079.355469 1656.679688 L 2048.097656 1632.632812 " fill-opacity="1" fill-rule="nonzero"/><path fill="#f5b5b8" d="M 3367.828125 809.015625 L 3420.675781 763.5 L 3466.1875 816.347656 L 3413.34375 861.820312 L 3367.828125 809.015625 " fill-opacity="1" fill-rule="nonzero"/><path fill="#ffffff" d="M 3759.34375 452.921875 L 3772.902344 435.304688 L 3790.476562 448.824219 L 3776.960938 466.441406 L 3759.34375 452.921875 " fill-opacity="1" fill-rule="nonzero"/><path fill="#afd6df" d="M 4037.914062 1423.980469 L 3979.539062 1525.089844 L 4096.292969 1525.089844 Z M 4037.914062 1423.980469 " fill-opacity="1" fill-rule="nonzero"/><g clip-path="url(#ae684a70c8)"><path fill="#f03e7b" d="M 2032 760.589844 L 2000.25 815.570312 L 2063.75 815.570312 Z M 2032 760.589844 " fill-opacity="1" fill-rule="nonzero"/></g><path fill="#f14b68" d="M 2899.992188 988.535156 L 2847.964844 1078.625 L 2952.019531 1078.625 Z M 2899.992188 988.535156 " fill-opacity="1" fill-rule="nonzero"/><path fill="#aae1ca" d="M 2444.695312 742.359375 L 2346.785156 911.925781 L 2542.601562 911.925781 Z M 2444.695312 742.359375 " fill-opacity="1" fill-rule="nonzero"/><path fill="#5c52a6" d="M 3258.449219 1555.121094 L 3242.554688 1536.683594 L 3218.628906 1541.230469 L 3210.601562 1564.214844 L 3226.496094 1582.652344 L 3250.417969 1578.144531 L 3258.449219 1555.121094 " fill-opacity="1" fill-rule="nonzero"/><path fill="#f5b5b8" d="M 2231.875 226.042969 L 2215.980469 207.605469 L 2192.054688 212.152344 L 2184.023438 235.097656 L 2199.921875 253.574219 L 2223.84375 249.023438 L 2231.875 226.042969 " fill-opacity="1" fill-rule="nonzero"/><g clip-path="url(#6322853b9e)"><path fill="#d3bfe0" d="M 4172.078125 262.011719 C 4172.078125 280.855469 4156.800781 296.136719 4137.953125 296.136719 C 4119.109375 296.136719 4103.828125 280.855469 4103.828125 262.011719 C 4103.828125 243.167969 4119.109375 227.925781 4137.953125 227.925781 C 4156.800781 227.925781 4172.078125 243.167969 4172.078125 262.011719 " fill-opacity="1" fill-rule="nonzero"/></g><path fill="#5f6062" d="M 2161.738281 1358.558594 C 2161.738281 1381.867188 2142.402344 1400.792969 2118.5625 1400.792969 C 2094.71875 1400.792969 2075.382812 1381.867188 2075.382812 1358.558594 C 2075.382812 1335.246094 2094.71875 1316.359375 2118.5625 1316.359375 C 2142.402344 1316.359375 2161.738281 1335.246094 2161.738281 1358.558594 " fill-opacity="1" fill-rule="nonzero"/><path fill="#f7bf49" d="M 3903.914062 960.265625 C 3903.914062 1001.113281 3870.773438 1034.214844 3829.96875 1034.214844 C 3789.125 1034.214844 3756.027344 1001.113281 3756.027344 960.265625 C 3756.027344 919.421875 3789.125 886.363281 3829.96875 886.363281 C 3870.773438 886.363281 3903.914062 919.421875 3903.914062 960.265625 " fill-opacity="1" fill-rule="nonzero"/><path fill="#f9a70d" d="M 3133.992188 545.835938 L 3158 514.578125 L 3189.296875 538.625 L 3165.25 569.886719 L 3133.992188 545.835938 " fill-opacity="1" fill-rule="nonzero"/><path fill="#5f6062" d="M 3247.632812 271.761719 C 3247.632812 295.074219 3228.339844 313.960938 3204.453125 313.960938 C 3180.613281 313.960938 3161.316406 295.074219 3161.316406 271.761719 C 3161.316406 248.453125 3180.613281 229.566406 3204.453125 229.566406 C 3228.339844 229.566406 3247.632812 248.453125 3247.632812 271.761719 " fill-opacity="1" fill-rule="nonzero"/><path fill="#afd6df" d="M 2952.019531 337.1875 L 2893.644531 438.296875 L 3010.398438 438.296875 Z M 2952.019531 337.1875 " fill-opacity="1" fill-rule="nonzero"/><path fill="#5c52a6" d="M 2172.554688 468.324219 L 2156.660156 449.890625 L 2132.734375 454.398438 L 2124.707031 477.421875 L 2140.601562 495.855469 L 2164.523438 491.308594 L 2172.554688 468.324219 " fill-opacity="1" fill-rule="nonzero"/><path fill="#f14b68" d="M 3495.644531 2550.515625 L 3417.929688 2478.738281 L 3489.703125 2401.066406 L 3567.417969 2472.800781 L 3495.644531 2550.515625 " fill-opacity="1" fill-rule="nonzero"/><path fill="#f5b5b8" d="M 2231.875 2399.671875 L 2215.980469 2381.195312 L 2192.054688 2385.742188 L 2184.023438 2408.726562 L 2199.921875 2427.203125 L 2223.84375 2422.65625 L 2231.875 2399.671875 " fill-opacity="1" fill-rule="nonzero"/><g clip-path="url(#2b814e05a6)"><path fill="#d3bfe0" d="M 4172.078125 2435.601562 C 4172.078125 2454.445312 4156.800781 2469.726562 4137.953125 2469.726562 C 4119.109375 2469.726562 4103.828125 2454.445312 4103.828125 2435.601562 C 4103.828125 2416.796875 4119.109375 2401.515625 4137.953125 2401.515625 C 4156.800781 2401.515625 4172.078125 2416.796875 4172.078125 2435.601562 " fill-opacity="1" fill-rule="nonzero"/></g><path fill="#f14b68" d="M 3985.886719 2075.371094 L 3933.859375 2165.460938 L 4037.914062 2165.460938 Z M 3985.886719 2075.371094 " fill-opacity="1" fill-rule="nonzero"/><path fill="#5f6062" d="M 3247.632812 2445.351562 C 3247.632812 2468.703125 3228.339844 2487.589844 3204.453125 2487.589844 C 3180.613281 2487.589844 3161.316406 2468.703125 3161.316406 2445.351562 C 3161.316406 2422.039062 3180.613281 2403.15625 3204.453125 2403.15625 C 3228.339844 2403.15625 3247.632812 2422.039062 3247.632812 2445.351562 " fill-opacity="1" fill-rule="nonzero"/><g clip-path="url(#26a3e594e2)"><path fill="#afd6df" d="M 2952.019531 2510.777344 L 2893.644531 2611.886719 L 3010.398438 2611.886719 Z M 2952.019531 2510.777344 " fill-opacity="1" fill-rule="nonzero"/></g><g clip-path="url(#e491c0071b)"><path fill="#f7bf49" d="M 2818.019531 2047.101562 C 2818.019531 2087.90625 2784.878906 2121.007812 2744.074219 2121.007812 C 2703.230469 2121.007812 2670.132812 2087.90625 2670.132812 2047.101562 C 2670.132812 2006.257812 2703.230469 1973.15625 2744.074219 1973.15625 C 2784.878906 1973.15625 2818.019531 2006.257812 2818.019531 2047.101562 " fill-opacity="1" fill-rule="nonzero"/></g><path fill="#ffffff" d="M 1764.449219 1764.710938 L 1708.324219 1712.886719 L 1760.148438 1656.761719 L 1816.3125 1708.585938 L 1764.449219 1764.710938 " fill-opacity="1" fill-rule="nonzero"/><path fill="#f03e7b" d="M 946.105469 1847.386719 L 914.355469 1902.363281 L 977.855469 1902.363281 Z M 946.105469 1847.386719 " fill-opacity="1" fill-rule="nonzero"/><path fill="#aae1ca" d="M 1358.800781 1829.152344 L 1260.890625 1998.71875 L 1456.710938 1998.71875 Z M 1358.800781 1829.152344 " fill-opacity="1" fill-rule="nonzero"/><path fill="#f5b5b8" d="M 1145.980469 1312.878906 L 1130.085938 1294.402344 L 1106.160156 1298.949219 L 1098.132812 1321.929688 L 1114.027344 1340.367188 L 1137.949219 1335.859375 L 1145.980469 1312.878906 " fill-opacity="1" fill-rule="nonzero"/><path fill="#f14b68" d="M 237.960938 1463.722656 L 160.25 1391.945312 L 231.980469 1314.230469 L 309.695312 1386.003906 L 237.960938 1463.722656 " fill-opacity="1" fill-rule="nonzero"/><path fill="#f5b5b8" d="M 110.148438 1895.808594 L 162.992188 1850.292969 L 208.464844 1903.140625 L 155.660156 1948.65625 L 110.148438 1895.808594 " fill-opacity="1" fill-rule="nonzero"/><path fill="#ffffff" d="M 501.660156 1539.714844 L 515.179688 1522.101562 L 532.796875 1535.660156 L 519.277344 1553.234375 L 501.660156 1539.714844 " fill-opacity="1" fill-rule="nonzero"/><path fill="#d3bfe0" d="M 914.355469 1348.804688 C 914.355469 1367.652344 899.074219 1382.933594 880.230469 1382.933594 C 861.425781 1382.933594 846.148438 1367.652344 846.148438 1348.804688 C 846.148438 1330.003906 861.425781 1314.722656 880.230469 1314.722656 C 899.074219 1314.722656 914.355469 1330.003906 914.355469 1348.804688 " fill-opacity="1" fill-rule="nonzero"/><g clip-path="url(#222ae22f34)"><path fill="#f7bf49" d="M 646.191406 2047.101562 C 646.191406 2087.90625 613.089844 2121.007812 572.289062 2121.007812 C 531.445312 2121.007812 498.34375 2087.90625 498.34375 2047.101562 C 498.34375 2006.257812 531.445312 1973.15625 572.289062 1973.15625 C 613.089844 1973.15625 646.191406 2006.257812 646.191406 2047.101562 " fill-opacity="1" fill-rule="nonzero"/></g><path fill="#ffffff" d="M 678.554688 677.917969 L 622.429688 626.09375 L 674.253906 569.925781 L 730.375 621.792969 L 678.554688 677.917969 " fill-opacity="1" fill-rule="nonzero"/><path fill="#f14b68" d="M 1323.855469 376.886719 L 1246.140625 305.152344 L 1317.875 227.433594 L 1395.585938 299.167969 L 1323.855469 376.886719 " fill-opacity="1" fill-rule="nonzero"/><path fill="#f5b5b8" d="M 1196.039062 809.015625 L 1248.886719 763.5 L 1294.402344 816.347656 L 1241.554688 861.820312 L 1196.039062 809.015625 " fill-opacity="1" fill-rule="nonzero"/><path fill="#ffffff" d="M 1587.554688 452.921875 L 1601.074219 435.304688 L 1618.691406 448.824219 L 1605.171875 466.441406 L 1587.554688 452.921875 " fill-opacity="1" fill-rule="nonzero"/><path fill="#afd6df" d="M 1866.125 1423.980469 L 1807.75 1525.089844 L 1924.503906 1525.089844 Z M 1866.125 1423.980469 " fill-opacity="1" fill-rule="nonzero"/><path fill="#f14b68" d="M 728.207031 988.535156 L 676.179688 1078.625 L 780.191406 1078.625 Z M 728.207031 988.535156 " fill-opacity="1" fill-rule="nonzero"/><path fill="#aae1ca" d="M 272.90625 742.359375 L 174.996094 911.925781 L 370.816406 911.925781 Z M 272.90625 742.359375 " fill-opacity="1" fill-rule="nonzero"/><path fill="#5c52a6" d="M 1086.660156 1555.121094 L 1070.765625 1536.683594 L 1046.839844 1541.230469 L 1038.8125 1564.214844 L 1054.707031 1582.652344 L 1078.632812 1578.144531 L 1086.660156 1555.121094 " fill-opacity="1" fill-rule="nonzero"/><path fill="#f5b5b8" d="M 60.085938 226.042969 L 44.191406 207.605469 L 20.265625 212.152344 L 12.238281 235.097656 L 28.132812 253.574219 L 52.054688 249.023438 L 60.085938 226.042969 " fill-opacity="1" fill-rule="nonzero"/><g clip-path="url(#6468cc6ec5)"><path fill="#d3bfe0" d="M 2000.25 262.011719 C 2000.25 280.855469 1985.011719 296.136719 1966.167969 296.136719 C 1947.320312 296.136719 1932.042969 280.855469 1932.042969 262.011719 C 1932.042969 243.167969 1947.320312 227.925781 1966.167969 227.925781 C 1985.011719 227.925781 2000.25 243.167969 2000.25 262.011719 " fill-opacity="1" fill-rule="nonzero"/></g><path fill="#f7bf49" d="M 1732.085938 960.265625 C 1732.085938 1001.113281 1698.984375 1034.214844 1658.179688 1034.214844 C 1617.339844 1034.214844 1584.238281 1001.113281 1584.238281 960.265625 C 1584.238281 919.421875 1617.339844 886.363281 1658.179688 886.363281 C 1698.984375 886.363281 1732.085938 919.421875 1732.085938 960.265625 " fill-opacity="1" fill-rule="nonzero"/><path fill="#f9a70d" d="M 962.203125 545.835938 L 986.210938 514.578125 L 1017.46875 538.625 L 993.460938 569.886719 L 962.203125 545.835938 " fill-opacity="1" fill-rule="nonzero"/><path fill="#5f6062" d="M 1075.84375 271.761719 C 1075.84375 295.074219 1056.507812 313.960938 1032.667969 313.960938 C 1008.824219 313.960938 989.488281 295.074219 989.488281 271.761719 C 989.488281 248.453125 1008.824219 229.566406 1032.667969 229.566406 C 1056.507812 229.566406 1075.84375 248.453125 1075.84375 271.761719 " fill-opacity="1" fill-rule="nonzero"/><path fill="#afd6df" d="M 780.234375 337.1875 L 721.855469 438.296875 L 838.609375 438.296875 Z M 780.234375 337.1875 " fill-opacity="1" fill-rule="nonzero"/><path fill="#f14b68" d="M 1323.855469 2550.515625 L 1246.140625 2478.738281 L 1317.875 2401.066406 L 1395.585938 2472.800781 L 1323.855469 2550.515625 " fill-opacity="1" fill-rule="nonzero"/><path fill="#f5b5b8" d="M 60.085938 2399.671875 L 44.191406 2381.195312 L 20.265625 2385.742188 L 12.238281 2408.726562 L 28.132812 2427.203125 L 52.054688 2422.65625 L 60.085938 2399.671875 " fill-opacity="1" fill-rule="nonzero"/><g clip-path="url(#cc25c90d84)"><path fill="#d3bfe0" d="M 2000.25 2435.601562 C 2000.25 2454.445312 1985.011719 2469.726562 1966.167969 2469.726562 C 1947.320312 2469.726562 1932.042969 2454.445312 1932.042969 2435.601562 C 1932.042969 2416.796875 1947.320312 2401.515625 1966.167969 2401.515625 C 1985.011719 2401.515625 2000.25 2416.796875 2000.25 2435.601562 " fill-opacity="1" fill-rule="nonzero"/></g><path fill="#f14b68" d="M 1814.097656 2075.371094 L 1762.070312 2165.460938 L 1866.085938 2165.460938 Z M 1814.097656 2075.371094 " fill-opacity="1" fill-rule="nonzero"/><path fill="#5f6062" d="M 1075.84375 2445.351562 C 1075.84375 2468.703125 1056.507812 2487.589844 1032.667969 2487.589844 C 1008.824219 2487.589844 989.488281 2468.703125 989.488281 2445.351562 C 989.488281 2422.039062 1008.824219 2403.15625 1032.667969 2403.15625 C 1056.507812 2403.15625 1075.84375 2422.039062 1075.84375 2445.351562 " fill-opacity="1" fill-rule="nonzero"/><g clip-path="url(#e033586c52)"><path fill="#afd6df" d="M 780.234375 2510.777344 L 721.855469 2611.886719 L 838.609375 2611.886719 Z M 780.234375 2510.777344 " fill-opacity="1" fill-rule="nonzero"/></g><g clip-path="url(#83a9974655)"><path fill="#f7bf49" d="M 646.191406 2047.101562 C 646.191406 2087.90625 613.089844 2121.007812 572.289062 2121.007812 C 531.445312 2121.007812 498.34375 2087.90625 498.34375 2047.101562 C 498.34375 2006.257812 531.445312 1973.15625 572.289062 1973.15625 C 613.089844 1973.15625 646.191406 2006.257812 646.191406 2047.101562 " fill-opacity="1" fill-rule="nonzero"/></g></svg>